<?xml version="1.0" standalone="no"?>
<!DOCTYPE svg PUBLIC "-//W3C//DTD SVG 20010904//EN"
 "http://www.w3.org/TR/2001/REC-SVG-20010904/DTD/svg10.dtd">
<svg version="1.0" xmlns="http://www.w3.org/2000/svg"
 width="360.000000pt" height="360.000000pt" viewBox="0 0 360.000000 360.000000"
 preserveAspectRatio="xMidYMid meet">
<metadata>
Created by potrace 1.14, written by Peter Selinger 2001-2017
</metadata>
<g transform="translate(0.000000,360.000000) scale(0.100000,-0.100000)"
fill="#000000" stroke="none">
<path d="M2458 2751 c-113 -36 -213 -109 -373 -270 -55 -56 -105 -101 -112
-101 -15 0 -250 67 -263 75 -5 3 -10 12 -10 18 0 16 -109 122 -133 130 -24 9
-67 -9 -103 -44 l-31 -30 -231 66 c-128 37 -240 64 -251 60 -25 -8 -121 -110
-121 -129 0 -8 5 -25 11 -38 5 -13 169 -137 365 -277 l354 -254 -79 -83 c-84
-87 -175 -204 -237 -304 -20 -33 -41 -60 -46 -60 -6 0 -81 23 -167 50 -86 27
-170 50 -185 50 -34 0 -96 -58 -96 -90 0 -39 19 -58 169 -175 132 -103 148
-118 148 -146 0 -38 24 -62 63 -62 28 0 42 -15 146 -149 117 -150 135 -168
174 -168 33 0 90 62 90 97 0 16 -22 99 -50 185 -27 86 -50 160 -50 166 0 5 27
26 60 46 100 62 217 153 304 236 l83 80 258 -359 c180 -251 265 -361 281 -365
12 -3 33 -2 46 3 28 10 118 105 118 123 0 7 -29 116 -65 242 l-65 229 35 39
c27 29 35 47 35 76 0 33 -8 45 -58 95 -32 31 -63 57 -69 57 -18 0 -27 22 -63
157 l-34 122 130 133 c188 194 257 309 258 434 1 74 -16 110 -66 135 -46 23
-96 23 -170 0z m162 -61 c15 -15 20 -33 20 -70 0 -110 -65 -216 -250 -405
l-147 -150 50 -177 c48 -169 51 -177 73 -172 16 4 33 -4 63 -31 59 -54 61 -69
11 -120 l-43 -44 68 -240 69 -241 -39 -40 c-22 -22 -44 -40 -50 -40 -5 0 -131
169 -279 375 -148 206 -271 375 -275 375 -4 0 -40 -34 -81 -76 -101 -102 -194
-178 -320 -259 -58 -38 -108 -71 -112 -75 -5 -3 19 -90 53 -194 58 -180 60
-189 43 -207 -10 -11 -24 -18 -32 -17 -8 2 -69 73 -136 158 -117 149 -123 155
-155 152 -31 -3 -32 -2 -29 29 3 32 -3 38 -152 154 -85 67 -156 128 -158 136
-1 9 6 23 17 33 18 17 26 15 198 -40 98 -31 183 -58 189 -61 6 -2 41 44 78
102 82 128 169 235 270 335 42 41 76 77 76 81 0 3 -169 127 -375 275 -206 148
-375 274 -375 279 0 6 18 28 40 50 l40 39 241 -69 240 -68 44 43 c51 50 66 48
120 -11 27 -30 35 -47 31 -63 -5 -21 4 -25 172 -73 l177 -50 150 146 c191 187
292 249 408 251 34 0 52 -5 67 -20z"/>
</g>
</svg>
